<svg width="137" height="28" viewBox="0 0 137 28" fill="none" xmlns="http://www.w3.org/2000/svg">
<g id="Group 808">
<path id="Union" fill-rule="evenodd" clip-rule="evenodd" d="M19.05 22.7867C22.7002 20.6792 24.5566 16.6579 24.0834 12.722L20.4589 14.8146C20.1973 16.7645 19.0665 18.5762 17.2309 19.636C14.0882 21.4505 10.0695 20.3737 8.25507 17.2309C6.4406 14.0882 7.51741 10.0696 10.6601 8.25509C13.1378 6.82462 16.1598 7.19116 18.2171 8.9503L12.6254 12.1787L11.7302 16.9392L20.2325 12.0304L22.6289 10.6468L23.4362 10.1807C23.255 9.72561 23.0388 9.27792 22.7867 8.84114C19.9676 3.95832 13.7239 2.28534 8.84112 5.10444C3.95828 7.92355 2.28533 14.1672 5.10442 19.05C7.92352 23.9328 14.1671 25.6058 19.05 22.7867Z" fill="white"/>
<path id="Subtract" fill-rule="evenodd" clip-rule="evenodd" d="M116.866 6.59013V15.489C116.866 16.7933 116.373 17.9032 115.372 18.8798C114.369 19.8263 113.259 20.2781 111.946 20.2781C110.628 20.2781 109.487 19.8229 108.487 18.8798C107.494 17.911 107.026 16.804 107.026 15.489V4.22456L103.005 6.54606V15.2046C103.005 17.7176 103.849 19.8653 105.522 21.5629L105.524 21.5657L105.527 21.5685C107.235 23.2652 109.381 24.1291 111.946 24.1291C114.508 24.1291 116.657 23.2669 118.335 21.5657C120.043 19.8669 120.887 17.7169 120.887 15.2046V4.26863L116.866 6.59013ZM47.9885 16.8971L47.2093 18.5088L47.1992 18.527C46.1704 20.3799 44.838 21.7915 43.1947 22.7315C41.5516 23.6714 39.6424 24.1142 37.5 24.0975L37.497 24.0975C34.6103 24.0636 32.1219 23.0741 30.0357 21.1448C27.9374 19.2043 26.8801 16.8012 26.8452 14.0129C26.8102 11.186 27.8355 8.78087 29.9289 6.77699L29.9312 6.77484L29.9334 6.77272C32.0454 4.78419 34.5653 3.72347 37.4953 3.68909C39.5942 3.65537 41.5532 4.20277 43.3581 5.28399L43.3621 5.28641L43.3661 5.28887C45.0537 6.32815 46.3391 7.63168 47.0947 9.278L47.0956 9.27992L47.9231 11.1107H43.5308L43.3101 10.7459C42.0519 8.66659 40.1877 7.59799 37.5884 7.53991C35.8898 7.5124 34.3893 8.09152 32.9948 9.3624L32.9921 9.36482L32.9895 9.36722C31.5477 10.6562 30.8661 12.1678 30.8661 13.9091C30.8661 15.6587 31.5228 17.1473 32.8474 18.4381C34.1666 19.6925 35.7242 20.3065 37.5263 20.2782L37.5282 20.2782L37.53 20.2781C40.1787 20.2492 42.0728 19.2277 43.354 17.2435L43.5777 16.8971H47.9885ZM59.5057 3.75275C62.2646 3.85473 64.6625 4.88289 66.588 6.89255C68.5037 8.86009 69.4887 11.2211 69.4887 13.9407C69.4887 16.7356 68.4292 19.1654 66.3445 21.1948C64.2876 23.197 61.782 24.1987 58.9015 24.0972C56.1374 24.0281 53.7398 22.9974 51.8161 21.0227C49.8943 19.0499 48.9457 16.6862 48.9457 13.9723C48.9457 11.1526 50.0001 8.69041 52.0551 6.68885C54.1139 4.65181 56.6234 3.6501 59.5057 3.75275ZM58.9885 20.2471L58.9937 20.2473C60.8177 20.3319 62.3212 19.7523 63.5957 18.4271L63.5986 18.424L63.6016 18.421C64.9236 17.0769 65.5281 15.5603 65.5004 13.7694C65.4405 12.0621 64.8039 10.6246 63.6005 9.39601C62.4111 8.18173 61.0186 7.60325 59.347 7.60325H59.3408L59.3346 7.60315C57.5725 7.57503 56.1124 8.18333 54.8537 9.40862C53.6017 10.6274 52.9959 12.0537 52.9665 13.7948C52.9372 15.5095 53.4882 16.9995 54.6834 18.2764C55.8807 19.5557 57.2799 20.1907 58.9833 20.2469L58.9885 20.2471ZM100.231 23.6868H96.1451V11.8868C96.1451 10.6511 95.7736 9.61807 95.0802 8.78109C94.4177 7.98144 93.5346 7.57165 92.4264 7.57165C91.2534 7.57165 90.2627 7.94503 89.3926 8.68112C88.5851 9.39057 88.1883 10.2623 88.1883 11.3496V23.6868H84.07V11.3496C84.07 10.2622 83.6737 9.39367 82.838 8.68505L82.8333 8.6811L82.8287 8.67706C81.9959 7.94741 81.009 7.57165 79.832 7.57165C78.7303 7.57165 77.8772 7.97653 77.2106 8.78109C76.5236 9.61037 76.1782 10.6085 76.1782 11.8868V23.6868H72.0923V12.1712C72.0923 9.78662 72.7855 7.75587 74.2788 6.22909C75.656 4.78446 77.4628 3.98908 79.6396 3.81791C81.1179 3.69678 82.4764 3.94775 83.6899 4.58313C84.6088 5.06429 85.4199 5.75283 86.1292 6.62587C86.8384 5.75283 87.6495 5.06429 88.5684 4.58313C89.7819 3.94775 91.1404 3.69678 92.6187 3.81791C94.799 3.98935 96.6018 4.78623 98.0083 6.22521C99.4989 7.74706 100.231 9.77562 100.231 12.1712V23.6868ZM127.829 16.8655V18.2064C127.829 18.5162 128.018 18.9689 128.645 19.5787C129.21 20.1295 129.76 20.3315 130.282 20.3103L130.286 20.3102L130.29 20.3101C131.191 20.2826 131.798 20.0432 132.243 19.6103C132.62 19.2435 132.836 18.719 132.864 17.9645C132.876 17.3487 132.705 16.8828 132.387 16.5125C132.058 16.1285 131.52 15.7881 130.7 15.5312L130.698 15.5305L128.528 14.8685C127.276 14.4854 126.263 13.8572 125.552 12.9586C124.841 12.0597 124.479 10.9479 124.425 9.67432C124.351 8.07452 124.921 6.6732 126.075 5.54904L126.08 5.54488L126.084 5.54079C127.251 4.44017 128.658 3.82509 130.31 3.75306C131.786 3.68001 133.134 4.16601 134.329 5.11685C135.583 6.0879 136.282 7.31418 136.396 8.79796L136.396 8.80391L136.477 10.1311H132.312V8.97975C132.312 8.61901 132.134 8.29437 131.786 8.03741C131.431 7.77541 130.918 7.60506 130.355 7.60326C129.338 7.63045 128.533 8.38232 128.51 9.34415L128.51 9.36278L128.508 9.38137C128.473 9.85003 128.598 10.2084 128.858 10.5083C129.135 10.827 129.61 11.1307 130.36 11.3738L132.505 12.0699L132.508 12.0708C133.846 12.5165 134.928 13.1946 135.699 14.1287C136.471 15.065 136.89 16.2099 136.98 17.5208C137.128 19.3703 136.443 21.0044 134.993 22.3456L134.989 22.3489L134.985 22.3523C133.543 23.651 131.85 24.2665 129.945 24.1595L129.944 24.1594L129.942 24.1593C128.178 24.0519 126.702 23.3283 125.508 22.0955L125.504 22.0914L125.5 22.0872C124.329 20.8398 123.743 19.3326 123.743 17.6061V16.8655H127.829Z" fill="white"/>
</g>
</svg>
